<?xml version="1.0" encoding="utf-8"?><svg width="1986" height="1399" viewBox="0 0 1986 1399" xmlns="http://www.w3.org/2000/svg" xmlns:xlink="http://www.w3.org/1999/xlink"><view id="Info_icon" viewBox="640.59 1142.09 76.04 76.04"/><svg viewBox="-25 -25 76.04 76.04" width="76.04" height="76.04" x="640.59" y="1142.09" xmlns="http://www.w3.org/2000/svg"><path d="M14.151 10.454h-2.84v1.686h.572v6.048h-.572v1.686h3.413v-1.687h-.574zm11.885 2.565a13.018 13.018 0 1 0-13.018 13.017 13.018 13.018 0 0 0 13.018-13.018zM13.018 1.474A11.544 11.544 0 1 1 1.474 13.018 11.543 11.543 0 0 1 13.018 1.474zM11.7 7.479a1.315 1.315 0 1 0 1.315-1.315A1.315 1.315 0 0 0 11.7 7.479z" fill-rule="evenodd"/></svg><view id="Info_icon_white" viewBox="662 0 662 842"/><svg width="662" height="842" viewBox="-25 -25 662 842" x="662" xmlns="http://www.w3.org/2000/svg"><path fill="#FFF" d="M331.973 337.199h-65.116v38.657h13.116V514.54h-13.116v38.649h78.263v-38.673h-13.165l.018-177.317zM604.5 396.012c.013-164.86-133.623-298.51-298.477-298.523C141.164 97.475 7.513 231.111 7.5 395.965s133.623 298.511 298.477 298.523H306c164.854 0 298.5-133.646 298.5-298.5v.024zM306 131.286c146.187 0 264.702 118.514 264.702 264.702 0 146.187-118.516 264.702-264.702 264.702-146.188 0-264.702-118.516-264.702-264.702-.013-146.18 118.48-264.689 264.655-264.702H306zm-30.219 137.696c0 16.654 13.495 30.148 30.149 30.148 16.661 0 30.148-13.495 30.148-30.148s-13.487-30.156-30.148-30.156c-16.654.001-30.149 13.503-30.149 30.156z"/></svg><view id="WhiteDropDownArrow" viewBox="1129.11 1220.4299999999998 66 70"/><svg baseProfile="basic" viewBox="-25 -25 66 70" width="66" height="70" x="1129.11" y="1220.4299999999998" xmlns="http://www.w3.org/2000/svg"><path fill="none" stroke="#FFF" d="M15.4 1L8 8.1.6 1m0 18L8 11.9l7.4 7.1"/></svg><view id="accordion_sleek_arrow" viewBox="1279.03 992 78.49 65.66"/><svg width="78.49" height="65.66" viewBox="-25 -25 78.49 65.66" x="1279.03" y="992" xmlns="http://www.w3.org/2000/svg"><g data-name="Group 4398" fill="none" stroke="#707070" stroke-linecap="round" stroke-width="2"><path data-name="Line 308" d="M1.414 1.414l12.829 12.829"/><path data-name="Line 309" d="M27.072 1.414L14.243 14.243"/></g></svg><view id="add_icon" viewBox="1112.04 842 100 100"/><svg width="100" height="100" viewBox="-25 -25 100 100" x="1112.04" y="842" xmlns="http://www.w3.org/2000/svg"><path d="M24.604 0v50M50 23.017H0" fill="none" stroke="#F8F7F7" stroke-width="4" stroke-miterlimit="10"/></svg><view id="adjust_credits" viewBox="1711.0699999999997 992 63.5 59"/><svg width="63.5" height="59" viewBox="-25 -25 63.5 59" x="1711.0699999999997" y="992" xmlns="http://www.w3.org/2000/svg"><g data-name="Group 4441" transform="translate(-134.5 -888.5)"><path data-name="Line 433" fill="none" stroke="#000" d="M134.5 890.5H148"/><path data-name="Line 434" fill="none" stroke="#000" d="M134.5 895.5H148"/><circle data-name="Ellipse 97" cx="2" cy="2" r="2" transform="translate(143 888.5)"/><circle data-name="Ellipse 98" cx="2" cy="2" r="2" transform="translate(136 893.5)"/></g></svg><view id="alert_red" viewBox="483.5 1142.09 80.39 78.34"/><svg viewBox="-25 -25 80.39 78.34" width="80.39" height="78.34" x="483.5" y="1142.09" xmlns="http://www.w3.org/2000/svg"><defs><style>.agcls-1{fill:red}</style></defs><g id="agic_error_red" transform="translate(-.651 -6.211)"><path id="agPath_217" data-name="Path 217" class="agcls-1" d="M33.32 29v2.351l.95 5.756a.4.4 0 0 0 .367.331h.817a.4.4 0 0 0 .369-.331l.95-5.8V29a.393.393 0 0 0-.369-.392h-2.715a.393.393 0 0 0-.369.392zm0 0" transform="translate(-19.2 -12.579)"/><path id="agPath_218" data-name="Path 218" class="agcls-1" d="M34.86 53.078a1.933 1.933 0 0 0-1.825 1.981 1.846 1.846 0 1 0 3.687 0 1.951 1.951 0 0 0-1.862-1.981zm0 0" transform="translate(-19.032 -26.321)"/><path id="agPath_219" data-name="Path 219" class="agcls-1" d="M30.777 32.348L16.957 6.9a1.25 1.25 0 0 0-2.231 0L.824 32.5a1.445 1.445 0 0 0 0 1.37 1.276 1.276 0 0 0 1.114.685h27.818a1.332 1.332 0 0 0 1.288-1.37 1.42 1.42 0 0 0-.267-.837zm-26.606-.534l11.67-21.493 11.67 21.493zm0 0"/></g></svg><view id="alert_white" viewBox="1312.04 842 100 100"/><svg width="100" height="100" viewBox="-25 -25 100 100" x="1312.04" y="842" xmlns="http://www.w3.org/2000/svg"><g fill="#FFF"><path d="M23.158 20.167v3.868l1.563 9.47a.658.658 0 0 0 .604.544h1.344a.656.656 0 0 0 .606-.544l1.563-9.542v-3.795a.648.648 0 0 0-.607-.645h-4.466a.645.645 0 0 0-.607.644zm2.81 17.004a3.181 3.181 0 0 0-3.002 3.26 3.036 3.036 0 1 0 6.065 0 3.21 3.21 0 0 0-3.063-3.26z"/><path d="M50.561 46.369L27.825 4.504a2.055 2.055 0 0 0-3.67 0L1.285 46.619a2.376 2.376 0 0 0 0 2.254A2.098 2.098 0 0 0 3.118 50h45.764a2.192 2.192 0 0 0 2.119-2.254 2.342 2.342 0 0 0-.44-1.377zm-43.77-.878l19.198-35.359 19.198 35.359H6.791z"/></g></svg><view id="back-to-arrow" viewBox="1357.52 992 74.21 64.72"/><svg width="74.21" height="64.72" viewBox="-25 -25 74.21 64.72" x="1357.52" y="992" xmlns="http://www.w3.org/2000/svg"><g data-name="Group 4375" fill="none" stroke="#006ca5" stroke-width="2"><path data-name="Path 1447" d="M1.189 7.265h23.018"/><path data-name="Path 1448" d="M8.244.719l-6.812 6.6 6.812 6.685"/></g></svg><view id="black_cross" viewBox="1129.65 1142.09 59.21 59.21"/><svg viewBox="-25 -25 59.21 59.21" width="59.21" height="59.21" x="1129.65" y="1142.09" xmlns="http://www.w3.org/2000/svg"><defs><style>.ajcls-1{fill:none;stroke:#000}</style></defs><g id="ajic_delete_course" transform="translate(.354 .354)"><path id="ajLine_86" data-name="Line 86" class="ajcls-1" d="M0 0l8.5 8.5"/><path id="ajLine_87" data-name="Line 87" class="ajcls-1" d="M8.5 0L0 8.5"/></g></svg><view id="block_icon" viewBox="1012.04 842 100 100"/><svg width="100" height="100" viewBox="-25 -25 100 100" x="1012.04" y="842" xmlns="http://www.w3.org/2000/svg"><circle fill="none" stroke="#FFF" stroke-width="4" stroke-miterlimit="10" cx="24.999" cy="24.999" r="22.997"/><path fill="none" stroke="#FFF" stroke-width="4" stroke-miterlimit="10" d="M40.834 7.498L9.167 44.163"/></svg><view id="blueCheckboxBg" viewBox="1512.04 842 65 95"/><svg width="65" height="95" viewBox="-25 -25 65 95" x="1512.04" y="842" xmlns="http://www.w3.org/2000/svg"><path fill="none" stroke="#6F7071" stroke-miterlimit="10" d="M14.499 26.699a2.8 2.8 0 0 1-2.801 2.801H3.299a2.8 2.8 0 0 1-2.8-2.801v-8.398a2.8 2.8 0 0 1 2.8-2.8h8.399a2.8 2.8 0 0 1 2.801 2.8v8.398zm.002-14.958a2.8 2.8 0 0 1-2.801 2.801H3.301a2.8 2.8 0 0 1-2.8-2.801V3.342a2.8 2.8 0 0 1 2.8-2.8H11.7a2.8 2.8 0 0 1 2.801 2.8v8.399z"/><path fill="none" stroke="#0A6CB5" stroke-miterlimit="10" d="M23.965 1558.03l-8.963 8.963 8.963 8.963m-17.93-17.926l8.967 8.963-8.967 8.963"/><path fill="none" stroke="#6F7071" stroke-miterlimit="10" d="M14.499 41.809a2.8 2.8 0 0 1-2.801 2.801h-8.4a2.8 2.8 0 0 1-2.8-2.801V33.41a2.8 2.8 0 0 1 2.8-2.801h8.4a2.8 2.8 0 0 1 2.801 2.801v8.399z"/><path fill="none" stroke="#6F7071" stroke-miterlimit="10" d="M12.501 32.609l-5 5 5 5m-10.005-10l5.005 5-5.005 5"/><path fill="none" stroke="#026BB5" stroke-width="2" d="M3.492 21.843L6.35 24.7l5.031-5.033"/></svg><view id="blueLike" viewBox="932.53 1142.09 70.23 69.24"/><svg width="70.23" height="69.24" viewBox="-25 -25 70.23 69.24" x="932.53" y="1142.09" xmlns="http://www.w3.org/2000/svg"><path fill="#55c2ef" d="M10.115 0l2.287 7.484 7.828-.136-6.412 4.49 2.548 7.403-6.251-4.713-6.251 4.713 2.548-7.403L0 7.348l7.826.136z"/></svg><view id="blue_cross" viewBox="0 1325.5 72.71 72.71"/><svg viewBox="-25 -25 72.71 72.71" width="72.71" height="72.71" y="1325.5" xmlns="http://www.w3.org/2000/svg"><defs><style>.ancls-1{fill:none;stroke:#0072b0}</style></defs><g id="anic_cross" transform="translate(-731.146 -76.146)"><path id="anLine_86" data-name="Line 86" class="ancls-1" transform="translate(731.5 76.5)" d="M0 0l22 22"/><path id="anLine_87" data-name="Line 87" class="ancls-1" transform="translate(731.5 76.5)" d="M22 0L0 22"/></g></svg><view id="chat_icon" viewBox="1197.55 992 81.48 75.92"/><svg viewBox="-25 -25 81.48 75.92" width="81.48" height="75.92" x="1197.55" y="992" xmlns="http://www.w3.org/2000/svg"><defs><style>.aocls-1{fill:#414141}</style></defs><g id="aoic_chat" transform="translate(-67.03 -.081)"><g id="aoPb3Fyp_3_" transform="translate(67.03 .08)"><g id="aoGroup_4194" data-name="Group 4194"><path id="aoPath_1396" data-name="Path 1396" class="aocls-1" d="M529.025 25.843q-3.6-1.541-7.182-3.081a.756.756 0 0 0-.637-.022 19.764 19.764 0 0 1-12.489.817 15.4 15.4 0 0 1-8.4-5.105A9.594 9.594 0 0 1 499.2 7.529a12.986 12.986 0 0 1 5.945-5.457A19.443 19.443 0 0 1 518.133.6a15.743 15.743 0 0 1 8.523 4.685 9.936 9.936 0 0 1 2.811 6.792 9.882 9.882 0 0 1-2.571 6.657.526.526 0 0 0-.1.63c.487 1.184.959 2.384 1.432 3.576.4.99.795 1.987 1.229 3.081-.207-.088-.32-.133-.432-.178zm-24.154-13.7a2.208 2.208 0 0 0 2.241 2.189 2.24 2.24 0 0 0 2.189-2.256 2.215 2.215 0 0 0-4.43.067zm15.458-2.234a2.215 2.215 0 1 0 2.256 2.2 2.176 2.176 0 0 0-2.256-2.203zm-8.816 2.219a2.219 2.219 0 1 0 4.438-.03 2.219 2.219 0 0 0-4.438.03z" transform="translate(-497.989 -.1)"/><path id="aoPath_1398" data-name="Path 1398" class="aocls-1" d="M769.049 134.345c1.7-.021-1.68.01 0 0z" transform="translate(-741.618 -114.66)"/></g></g></g></svg><view id="checkboxBg" viewBox="1577.04 842 65 95"/><svg width="65" height="95" viewBox="-25 -25 65 95" x="1577.04" y="842" xmlns="http://www.w3.org/2000/svg"><path fill="none" stroke="#6F7071" stroke-miterlimit="10" d="M14.499 26.699a2.8 2.8 0 0 1-2.801 2.801H3.299a2.8 2.8 0 0 1-2.8-2.801v-8.398a2.8 2.8 0 0 1 2.8-2.8h8.399a2.8 2.8 0 0 1 2.801 2.8v8.398zm.002-14.958a2.8 2.8 0 0 1-2.801 2.801H3.301a2.8 2.8 0 0 1-2.8-2.801V3.342a2.8 2.8 0 0 1 2.8-2.8H11.7a2.8 2.8 0 0 1 2.801 2.8v8.399z"/><path fill="none" stroke="#707171" d="M3.556 22.162l2.854 2.856 5.035-5.036"/><path fill="none" stroke="#0A6CB5" stroke-miterlimit="10" d="M23.965 1558.03l-8.963 8.963 8.963 8.963m-17.93-17.926l8.967 8.963-8.967 8.963"/><g fill="none" stroke="#6F7071" stroke-miterlimit="10"><path d="M14.499 41.808a2.8 2.8 0 0 1-2.801 2.801h-8.4a2.8 2.8 0 0 1-2.8-2.801V33.41a2.8 2.8 0 0 1 2.8-2.8h8.4a2.8 2.8 0 0 1 2.801 2.8v8.398z"/><path d="M12.501 32.609l-5 5 5 5m-10.005-10l5.005 5-5.005 5"/></g></svg><view id="correct_icon" viewBox="918.36 1220.4299999999998 73.54 72.67"/><svg viewBox="-25 -25 73.54 72.67" width="73.54" height="72.67" x="918.36" y="1220.4299999999998" xmlns="http://www.w3.org/2000/svg"><path d="M1.57 10.672l6.791 8.6A193.179 193.179 0 0 1 22.047 1.335" fill="none" stroke="#50b95b" stroke-width="4"/></svg><view id="down_arrow" viewBox="1574.4299999999998 992 68.32 60.58"/><svg viewBox="-25 -25 68.32 60.58" width="68.32" height="60.58" x="1574.4299999999998" y="992" xmlns="http://www.w3.org/2000/svg"><defs><style>.arcls-1{fill:none;stroke:#707070;stroke-linecap:round;stroke-width:2px}</style></defs><g id="ardown_arrow" transform="translate(-108.086 -380.086)"><path id="arLine_308" data-name="Line 308" class="arcls-1" transform="translate(109.5 381.5)" d="M0 0l7.748 7.748"/><path id="arLine_309" data-name="Line 309" class="arcls-1" transform="translate(117.248 381.5)" d="M7.748 0L0 7.748"/></g></svg><view id="download-button" viewBox="0 842 483.5 483.5"/><svg width="483.5" height="483.5" viewBox="-25 -25 483.5 483.5" y="842" xmlns="http://www.w3.org/2000/svg"><path d="M395.25 153h-102V0h-153v153h-102l178.5 178.5L395.25 153zm-357 229.5v51h357v-51h-357z"/></svg><view id="edit_black" viewBox="1412.04 842 100 100"/><svg width="100" height="100" viewBox="-25 -25 100 100" x="1412.04" y="842" xmlns="http://www.w3.org/2000/svg"><path d="M47.827 50.004c-5.706-2.723-11.413-5.197-17.112-7.672-.229-.249-.684-.494-.912-.742-7.305-7.921-14.602-16.091-22.14-24.012-.233-.248-.233-.248-.233-.497 3.421-3.714 7.076-7.439 10.498-11.386l6.39 6.931 15.75 17.082a8.729 8.729 0 0 1 1.142 1.974c2.054 5.449 4.108 10.896 6.16 16.094 0 .25.229.494.458.742l-.001 1.486zM35.502 36.389h-.229a2.979 2.979 0 0 0-3.65 2.97c.055.367.213.711.457.99 2.977 1.483 6.161 2.725 9.129 4.207.229.25.912-.248 1.369-.492.229-.494.912-.742.458-1.732-1.37-3.221-2.515-6.438-3.64-9.902-.244-.498-.697-.498-1.155-.498-2.281.742-2.739 1.733-2.739 4.457zM10.863 0l4.108 2.226c-3.65 3.946-7.304 7.672-10.726 11.386a7.916 7.916 0 0 1-2.064-4.207V6.682a32.814 32.814 0 0 1 2.052-3.947C5.145 1.251 6.972.762 8.341.012L10.863 0z"/></svg><view id="edit_white" viewBox="1212.04 842 100 100"/><svg width="100" height="100" viewBox="-25 -25 100 100" x="1212.04" y="842" xmlns="http://www.w3.org/2000/svg"><path d="M47.827 50.004c-5.706-2.723-11.413-5.197-17.112-7.672-.229-.249-.684-.494-.912-.742-7.305-7.921-14.602-16.091-22.14-24.012-.233-.248-.233-.248-.233-.497 3.421-3.714 7.076-7.439 10.498-11.386l6.39 6.931 15.751 17.082a8.8 8.8 0 0 1 1.141 1.973c2.053 5.45 4.108 10.896 6.16 16.094 0 .25.229.494.458.742v1.487zM35.502 36.389h-.229a2.979 2.979 0 0 0-3.65 2.97c.055.367.213.711.457.991 2.977 1.483 6.161 2.724 9.129 4.207.229.249.912-.249 1.369-.493.229-.494.912-.742.458-1.732-1.37-3.221-2.515-6.438-3.639-9.902-.245-.498-.698-.498-1.156-.498-2.281.742-2.739 1.733-2.739 4.457zM10.863 0l4.108 2.226c-3.65 3.946-7.304 7.672-10.726 11.386a7.916 7.916 0 0 1-2.064-4.207V6.682a32.814 32.814 0 0 1 2.052-3.947C5.145 1.251 6.972.762 8.341.012L10.863 0z" fill="#FFF"/></svg><view id="elective_completed" viewBox="930.05 992 93.01 93.01"/><svg width="93.01" height="93.01" viewBox="-25 -25 93.01 93.01" x="930.05" y="992" xmlns="http://www.w3.org/2000/svg"><g data-name="Group 5220"><g data-name="Group 4562"><g data-name="Group 4557"><path data-name="Path 1260" d="M21.506 1A20.506 20.506 0 1 1 1 21.506 20.506 20.506 0 0 1 21.506 1z" fill="#006ca5" stroke="#006ca5" stroke-width="2"/></g></g><g data-name="Group 4561" fill="none" stroke="#fff" stroke-linecap="round" stroke-width="2"><path data-name="Line 308" d="M17 32.001l10-10"/><path data-name="Line 309" d="M17 12.001l10 10"/></g></g></svg><view id="elective_enrolled" viewBox="1642.04 842 93.01 93.01"/><svg width="93.01" height="93.01" viewBox="-25 -25 93.01 93.01" x="1642.04" y="842" xmlns="http://www.w3.org/2000/svg"><path fill="#008FDD" stroke="#008FDD" stroke-width="2" d="M21.506 1c11.325 0 20.507 9.181 20.507 20.506 0 11.326-9.182 20.506-20.507 20.506S1 32.832 1 21.506h0C1 10.181 10.18 1 21.506 1z"/><path d="M17 32.001l10-10m-10-10l10 10" fill="none" stroke="#FFF" stroke-width="2" stroke-linecap="round"/></svg><view id="elective_error" viewBox="837.04 992 93.01 93.01"/><svg width="93.01" height="93.01" viewBox="-25 -25 93.01 93.01" x="837.04" y="992" xmlns="http://www.w3.org/2000/svg"><path fill="red" stroke="red" stroke-width="2" d="M21.506 1c11.325 0 20.507 9.181 20.507 20.506 0 11.326-9.182 20.506-20.507 20.506S1 32.832 1 21.506h0C1 10.181 10.18 1 21.506 1z"/><path d="M17 32.001l10-10m-10-10l10 10" fill="none" stroke="#FFF" stroke-width="2" stroke-linecap="round"/></svg><view id="elective_planned" viewBox="1735.05 842 93.01 93.01"/><svg width="93.01" height="93.01" viewBox="-25 -25 93.01 93.01" x="1735.05" y="842" xmlns="http://www.w3.org/2000/svg"><path fill="#50B95B" stroke="#50B95B" stroke-width="2" d="M21.506 1c11.325 0 20.507 9.181 20.507 20.506 0 11.326-9.182 20.506-20.507 20.506S1 32.832 1 21.506h0C1 10.181 10.18 1 21.506 1z"/><path d="M17 32.001l10-10m-10-10l10 10" fill="none" stroke="#FFF" stroke-width="2" stroke-linecap="round"/></svg><view id="elective_recommended" viewBox="1023.06 992 93.01 93.01"/><svg width="93.01" height="93.01" viewBox="-25 -25 93.01 93.01" x="1023.06" y="992" xmlns="http://www.w3.org/2000/svg"><path fill="#8F00F8" stroke="#8F00F8" stroke-width="2" d="M21.506 1c11.325 0 20.507 9.181 20.507 20.506 0 11.326-9.182 20.506-20.507 20.506S1 32.832 1 21.506h0C1 10.181 10.18 1 21.506 1z"/><path d="M17 32.001l10-10m-10-10l10 10" fill="none" stroke="#FFF" stroke-width="2" stroke-linecap="round"/></svg><view id="elective_suppressed" viewBox="1828.06 842 93.01 93.01"/><svg width="93.01" height="93.01" viewBox="-25 -25 93.01 93.01" x="1828.06" y="842" xmlns="http://www.w3.org/2000/svg"><path fill="#FF8E0B" stroke="#FF8E0B" stroke-width="2" d="M21.506 1c11.325 0 20.507 9.181 20.507 20.506 0 11.326-9.182 20.506-20.507 20.506S1 32.832 1 21.506h0C1 10.181 10.18 1 21.506 1z"/><path d="M17 32.001l10-10m-10-10l10 10" fill="none" stroke="#FFF" stroke-width="2" stroke-linecap="round"/></svg><view id="grayDropDownArrow" viewBox="1063.11 1220.4299999999998 66 70"/><svg baseProfile="basic" viewBox="-25 -25 66 70" width="66" height="70" x="1063.11" y="1220.4299999999998" xmlns="http://www.w3.org/2000/svg"><path fill="none" stroke="#6F6F70" d="M15.4 1L8 8.1.6 1m14.8 17L8 10.9.6 18"/></svg><view id="greenCheckIcon" viewBox="622.16 1220.4299999999998 75 75"/><svg width="75" height="75" viewBox="-25 -25 75 75" x="622.16" y="1220.4299999999998" xmlns="http://www.w3.org/2000/svg"><circle fill="#54BA63" cx="12.5" cy="428.4" r="15.7"/><path fill="none" stroke="#FFF" stroke-width="2" stroke-linecap="round" stroke-linejoin="round" stroke-miterlimit="10" d="M4.7 428.3l5.401 5.4 10.3-10.2"/><circle fill="#54BA63" cx="12.5" cy="12.5" r="12.499"/><path fill="none" stroke="#FFF" stroke-width="2" stroke-linecap="round" stroke-linejoin="round" stroke-miterlimit="10" d="M6.29 12.421l4.3 4.299 8.201-8.121"/></svg><view id="greenSetting" viewBox="697.16 1220.4299999999998 75 75"/><svg width="75" height="75" viewBox="-25 -25 75 75" x="697.16" y="1220.4299999999998" xmlns="http://www.w3.org/2000/svg"><path fill="#62BC4B" d="M22.029 13.9a.542.542 0 0 0 .499-.531v-1.735a.543.543 0 0 0-.499-.533l-2.073-.133a.79.79 0 0 1-.652-.506l-.553-1.332a.778.778 0 0 1 .1-.816l1.377-1.561a.542.542 0 0 0-.023-.728l-1.227-1.231a.538.538 0 0 0-.727-.023L16.688 6.15a.782.782 0 0 1-.818.1l-1.334-.551a.791.791 0 0 1-.508-.65l-.129-2.076a.542.542 0 0 0-.531-.5h-1.736a.54.54 0 0 0-.531.5l-.129 2.076a.793.793 0 0 1-.508.65l-1.332.552a.785.785 0 0 1-.82-.1L6.751 4.773a.543.543 0 0 0-.73.023l-1.226 1.23a.54.54 0 0 0-.023.727l1.377 1.563a.782.782 0 0 1 .1.818l-.553 1.328a.789.789 0 0 1-.651.506l-2.073.133a.543.543 0 0 0-.5.533v1.735c0 .275.224.514.5.533l2.072.129a.793.793 0 0 1 .652.508l.553 1.334a.781.781 0 0 1-.1.818l-1.377 1.561a.542.542 0 0 0 .022.729L6.02 20.21a.544.544 0 0 0 .73.021l1.561-1.379a.774.774 0 0 1 .818-.1l1.334.555c.264.082.49.375.508.648l.129 2.072c.018.273.256.5.531.5h1.736a.542.542 0 0 0 .531-.5l.129-2.072a.786.786 0 0 1 .508-.648l1.334-.555a.773.773 0 0 1 .818.1l1.563 1.379c.205.184.533.17.727-.023l1.227-1.227a.543.543 0 0 0 .023-.729l-1.377-1.561a.781.781 0 0 1-.1-.818l.553-1.334a.786.786 0 0 1 .652-.508l2.074-.131zm-9.526 2.77a4.174 4.174 0 0 1-4.17-4.17 4.173 4.173 0 0 1 4.17-4.164 4.172 4.172 0 0 1 4.166 4.164 4.173 4.173 0 0 1-4.166 4.17z"/></svg><view id="greenTickIcon" viewBox="547.16 1220.4299999999998 75 75"/><svg width="75" height="75" viewBox="-25 -25 75 75" x="547.16" y="1220.4299999999998" xmlns="http://www.w3.org/2000/svg"><circle fill="#54BA63" cx="12.5" cy="428.4" r="15.7"/><path fill="none" stroke="#FFF" stroke-width="2" stroke-linecap="round" stroke-linejoin="round" stroke-miterlimit="10" d="M4.7 428.3l5.401 5.4 10.3-10.2"/><g fill="none" stroke="#54BA63" stroke-miterlimit="10"><circle cx="12.5" cy="12.5" r="11.961"/><path stroke-width="2" d="M6.29 12.421l4.3 4.299 8.201-8.121"/></g></svg><view id="ic_Search" viewBox="991.9 1220.4299999999998 71.21 72.5"/><svg viewBox="-25 -25 71.21 72.5" width="71.21" height="72.5" x="991.9" y="1220.4299999999998" xmlns="http://www.w3.org/2000/svg"><path data-name="Search Glyph background" fill="transparent" d="M0 0h21.212v22.496H0z"/><path d="M19.96 22.494a1.226 1.226 0 0 1-.907-.412l-5.8-6.156h-.005a7.837 7.837 0 0 1-4.88 1.707h-.035a8.1 8.1 0 0 1-5.882-2.608A9.113 9.113 0 0 1 0 8.787a9.073 9.073 0 0 1 2.408-6.224A8.064 8.064 0 0 1 8.238 0h.036a8.1 8.1 0 0 1 5.882 2.608 9.113 9.113 0 0 1 2.451 6.242 9.012 9.012 0 0 1-1.591 5.193l5.807 6.157a1.381 1.381 0 0 1 .349 1.3 1.291 1.291 0 0 1-.9.952 1.186 1.186 0 0 1-.312.042zM8.248 1.764a6.443 6.443 0 0 0-4.66 2.051 7.366 7.366 0 0 0 .034 9.971 6.482 6.482 0 0 0 4.706 2.087h.026a6.449 6.449 0 0 0 4.665-2.052 7.365 7.365 0 0 0-.034-9.971 6.479 6.479 0 0 0-4.706-2.086z" fill="#595959"/></svg><view id="ic_chat" viewBox="1116.07 992 81.48 75.92"/><svg viewBox="-25 -25 81.48 75.92" width="81.48" height="75.92" x="1116.07" y="992" xmlns="http://www.w3.org/2000/svg"><defs><style>.bgcls-1{fill:#414141}</style></defs><g id="bgic_chat" transform="translate(-67.03 -.081)"><g id="bgPb3Fyp_3_" transform="translate(67.03 .08)"><g id="bgGroup_4194" data-name="Group 4194"><path id="bgPath_1396" data-name="Path 1396" class="bgcls-1" d="M529.025 25.843q-3.6-1.541-7.182-3.081a.756.756 0 0 0-.637-.022 19.764 19.764 0 0 1-12.489.817 15.4 15.4 0 0 1-8.4-5.105A9.594 9.594 0 0 1 499.2 7.529a12.986 12.986 0 0 1 5.945-5.457A19.443 19.443 0 0 1 518.133.6a15.743 15.743 0 0 1 8.523 4.685 9.936 9.936 0 0 1 2.811 6.792 9.882 9.882 0 0 1-2.571 6.657.526.526 0 0 0-.1.63c.487 1.184.959 2.384 1.432 3.576.4.99.795 1.987 1.229 3.081-.207-.088-.32-.133-.432-.178zm-24.154-13.7a2.208 2.208 0 0 0 2.241 2.189 2.24 2.24 0 0 0 2.189-2.256 2.215 2.215 0 0 0-4.43.067zm15.458-2.234a2.215 2.215 0 1 0 2.256 2.2 2.176 2.176 0 0 0-2.256-2.203zm-8.816 2.219a2.219 2.219 0 1 0 4.438-.03 2.219 2.219 0 0 0-4.438.03z" transform="translate(-497.989 -.1)"/><path id="bgPath_1398" data-name="Path 1398" class="bgcls-1" d="M769.049 134.345c1.7-.021-1.68.01 0 0z" transform="translate(-741.618 -114.66)"/></g></g></g></svg><view id="ic_chat-white" viewBox="483.5 842 353.54 300.09"/><svg width="353.54" height="300.09" viewBox="250.24 -25.12 353.54 300.09" x="483.5" y="842" xmlns="http://www.w3.org/2000/svg"><g fill="#FFF"><path d="M574.514 248.245a48176.748 48176.748 0 0 1-69.261-29.712 7.292 7.292 0 0 0-6.144-.213 190.594 190.594 0 0 1-120.438 7.879 148.51 148.51 0 0 1-81.006-49.23c-25.314-29.383-29.614-71.437-10.771-105.336a125.233 125.233 0 0 1 57.331-52.625 187.498 187.498 0 0 1 125.25-14.195 151.827 151.827 0 0 1 82.193 45.18 95.824 95.824 0 0 1 27.107 65.499 95.292 95.292 0 0 1-24.793 64.197 5.07 5.07 0 0 0-.965 6.075c4.696 11.418 9.248 22.99 13.81 34.486 3.858 9.547 7.667 19.161 11.853 29.711-1.997-.848-3.086-1.282-4.166-1.716zM341.583 116.128c.1 11.759 9.713 21.212 21.473 21.111l.138-.001c11.798-.27 21.197-9.956 21.11-21.756-.178-11.797-9.886-21.216-21.684-21.038-11.797.179-21.216 9.887-21.037 21.684zm149.069-21.544c-11.795.219-21.18 9.958-20.961 21.753.219 11.795 9.957 21.18 21.752 20.961 11.696-.217 21.043-9.8 20.965-21.498.152-11.588-9.119-21.105-20.707-21.257-.35-.005-.699 0-1.049.012v.029zm-85.017 21.399c.08 11.818 9.727 21.335 21.545 21.255s21.334-9.727 21.254-21.544c-.08-11.818-9.726-21.334-21.544-21.254-11.82.08-21.334 9.725-21.255 21.543z"/><path d="M539.748 189.824c16.395-.203-16.201.096 0 0z"/></g></svg><view id="icon-duplicate" viewBox="792.42 1142.09 69 72"/><svg width="69" height="72" viewBox="-25 -25 69 72" x="792.42" y="1142.09" xmlns="http://www.w3.org/2000/svg"><path d="M14 0H2a2.006 2.006 0 0 0-2 2v14h2V2h12zm3 4H6a2.006 2.006 0 0 0-2 2v14a2.006 2.006 0 0 0 2 2h11a2.006 2.006 0 0 0 2-2V6a2.006 2.006 0 0 0-2-2zm0 16H6V6h11z" fill="#5b5b5b"/></svg><view id="inactive_icon" viewBox="772.16 1220.4299999999998 74.98 74.98"/><svg id="bjic_block" viewBox="-25 -25 74.98 74.98" width="74.98" height="74.98" x="772.16" y="1220.4299999999998" xmlns="http://www.w3.org/2000/svg"><defs><style>.bjcls-1{fill:none;stroke:#3b3b3b;stroke-width:2px}</style></defs><g id="bjEllipse_90" data-name="Ellipse 90" class="bjcls-1"><circle cx="12.489" cy="12.489" r="12.489"/><circle cx="12.489" cy="12.489" r="11.489" fill="none"/></g><path id="bjLine_408" data-name="Line 408" class="bjcls-1" transform="translate(4.58 3.746)" d="M15.82 0L0 18.317"/></svg><view id="info_icon_red" viewBox="0 0 662 842"/><svg width="662" height="842" viewBox="-25 -25 662 842" xmlns="http://www.w3.org/2000/svg"><path fill="red" d="M332.148 336.804h-65.553v38.917h13.204v139.612h-13.204v38.911h78.787V515.31h-13.254l.02-178.506zM606.5 396.012c.013-165.963-134.518-300.51-300.477-300.523C140.059 95.475 5.513 230.006 5.5 395.965s134.518 300.511 300.477 300.523H306c165.959 0 300.5-134.541 300.5-300.5v.024zM306 129.513c147.167 0 266.476 119.307 266.476 266.476 0 147.167-119.309 266.476-266.476 266.476-147.168 0-266.475-119.309-266.475-266.476-.013-147.159 119.273-266.463 266.428-266.476H306zm-30.422 138.618c0 16.765 13.587 30.352 30.352 30.352 16.771 0 30.352-13.586 30.352-30.352s-13.581-30.357-30.352-30.357c-16.765 0-30.352 13.592-30.352 30.357z"/></svg><view id="left_arrow" viewBox="1921.07 842 63.66 75.2"/><svg viewBox="-25 -25 63.66 75.2" width="63.66" height="75.2" x="1921.07" y="842" xmlns="http://www.w3.org/2000/svg"><path d="M13.13 24.671L1.06 12.6 13.13.53" fill="none" stroke="#0072b0" stroke-miterlimit="10" stroke-width="1.5" fill-rule="evenodd"/></svg><view id="more_white_icon" viewBox="912.04 842 100 101.5"/><svg width="100" height="101.5" viewBox="-25 -25.75 100 101.5" x="912.04" y="842" xmlns="http://www.w3.org/2000/svg"><g transform="translate(-1128 -211)" fill="#FFF"><circle cx="1153" cy="216.263" r="5.263"/><circle cx="1153" cy="236" r="5.263"/><circle cx="1153" cy="255.738" r="5.264"/></g></svg><view id="move_course_icon" viewBox="1068.18 1142.09 61.47 59.89"/><svg viewBox="-25 -25 61.47 59.89" width="61.47" height="59.89" x="1068.18" y="1142.09" xmlns="http://www.w3.org/2000/svg"><g data-name="Group 3963"><path data-name="Path 1360" d="M8.265 4.339l.69.69 2.515-2.515L8.954 0l-.69.69 1.337 1.337H.519v.976h9.083z"/><path data-name="Path 1361" d="M11.473 6.89h-9.6l1.332-1.337-.69-.69L0 7.378l2.515 2.515.69-.69-1.337-1.338h9.6z"/></g></svg><view id="plan_history" viewBox="716.63 1142.09 75.79 72.12"/><svg viewBox="-25 -25 75.79 72.12" width="75.79" height="72.12" x="716.63" y="1142.09" xmlns="http://www.w3.org/2000/svg"><defs><style>.bocls-1{fill:#414141}</style></defs><g id="boic_history" transform="translate(0 .001)"><path id="boPath_1400" data-name="Path 1400" class="bocls-1" d="M6.939 18.98l1.708-1.708a8.528 8.528 0 0 0 6.939 2.454 8.315 8.315 0 0 0 5.222-2.481 8.61 8.61 0 1 0-14.696-6.093h3.55q-2.44 2.427-4.889 4.88A764.145 764.145 0 0 0 0 11.242c.009-.027.027-.045.036-.072h3.6a10.984 10.984 0 0 1 4.309-8.754A10.639 10.639 0 0 1 14.794.1a11.056 11.056 0 1 1-7.855 18.88z" transform="translate(0 -.097)"/><path id="boPath_1401" data-name="Path 1401" class="bocls-1" d="M149.936 68.6h1.825v.315c0 1.528.009 3.056-.009 4.584a.479.479 0 0 0 .261.476q1.887 1.105 3.766 2.229c.081.045.162.1.27.171-.288.494-.575.98-.872 1.474-.1-.054-.171-.09-.243-.135q-2.4-1.429-4.808-2.849a.344.344 0 0 1-.225-.324q.013-2.885.009-5.77c.008-.054.017-.099.026-.171z" transform="translate(-136.427 -62.443)"/></g></svg><view id="radioBtn-sprite" viewBox="837.04 842 75 150"/><svg width="75" height="150" viewBox="-25 -25 75 150" x="837.04" y="842" xmlns="http://www.w3.org/2000/svg"><path fill="#717172" d="M12.497 0c6.16 0 11.093 5.152 10.984 11.312-.229 5.717-4.934 10.421-10.655 10.53-6.155.224-11.308-4.814-11.308-10.979C1.518 4.929 6.447 0 12.497 0m0 1.121c-6.05 0-10.869 5.486-9.633 11.761.673 3.922 3.807 7.057 7.729 7.729 6.28 1.121 11.76-3.583 11.76-9.633.001-5.376-4.474-9.857-9.856-9.857"/><path fill="#717172" d="M20.898 10.979c0 4.595-3.807 8.402-8.402 8.402-4.595 0-8.402-3.808-8.402-8.402s3.807-8.402 8.402-8.402c4.596-.001 8.402 3.807 8.402 8.402m-8.401 28.045c6.05 0 10.984 4.929 10.984 10.979s-4.934 10.983-10.984 10.983S1.518 56.052 1.518 50.003c.109-6.05 4.929-10.979 10.979-10.979m0 1.122c-5.377 0-9.857 4.365-9.857 9.857 0 5.382 4.365 9.856 9.857 9.856 5.382 0 9.857-4.365 9.857-9.856 0-5.377-4.366-9.857-9.857-9.857"/><path fill="#63BA4A" d="M20.898 50.003c0 4.595-3.807 8.401-8.402 8.401-4.595 0-8.402-3.807-8.402-8.401s3.807-8.402 8.402-8.402c4.705 0 8.402 3.807 8.402 8.402"/><path fill="#717172" d="M12.497 78.054c6.05 0 10.984 4.923 10.984 10.973 0 6.051-4.934 10.974-10.984 10.974S1.518 95.078 1.518 89.027c.109-6.05 4.929-10.973 10.979-10.973m0 1.116c-5.377 0-9.857 4.376-9.857 9.856 0 5.372 4.365 9.857 9.857 9.857 5.382 0 9.857-4.365 9.857-9.857a9.803 9.803 0 0 0-9.857-9.856"/></svg><view id="reset_plan" viewBox="847.14 1220.4299999999998 71.22 74.81"/><svg viewBox="-25 -25 71.22 74.81" width="71.22" height="74.81" x="847.14" y="1220.4299999999998" xmlns="http://www.w3.org/2000/svg"><g data-name="Group 4191"><path data-name="Path 1391" d="M10.679 0v3.588a10.531 10.531 0 0 1 8.732 4.733 10.1 10.1 0 0 1 1.664 7.521 10.6 10.6 0 0 1-21.073-1.6h2.94a7.625 7.625 0 0 0 3.761 6.528 7.362 7.362 0 0 0 5.511.908 7.618 7.618 0 0 0-1.535-15.064v3.609C8.194 8.494 5.773 6.83 3.331 5.122a1.89 1.89 0 0 0 .216-.173C5.838 3.35 8.129 1.772 10.442.173A1.4 1.4 0 0 0 10.636 0z" fill="#414141"/></g></svg><view id="right_arrow" viewBox="483.5 1220.4299999999998 63.66 75.2"/><svg viewBox="-25 -25 63.66 75.2" width="63.66" height="75.2" x="483.5" y="1220.4299999999998" xmlns="http://www.w3.org/2000/svg"><path d="M.53.53L12.6 12.601.53 24.671" fill="none" stroke="#0072b0" stroke-miterlimit="10" stroke-width="1.5" fill-rule="evenodd"/></svg><view id="selectArrow" viewBox="1774.5699999999997 992 58 55"/><svg width="58" height="55" viewBox="-25 -25 58 55" x="1774.5699999999997" y="992" xmlns="http://www.w3.org/2000/svg"><path fill="none" stroke="#707171" d="M.5.75l3.503 3.5L7.5.75"/></svg><view id="select_course" viewBox="1002.76 1142.09 65.42 65.42"/><svg width="65.42" height="65.42" viewBox="-25 -25 65.42 65.42" x="1002.76" y="1142.09" xmlns="http://www.w3.org/2000/svg"><g data-name="Group 4456"><path d="M15.424 7.712a7.712 7.712 0 1 0-7.712 7.712 7.712 7.712 0 0 0 7.712-7.712zM7.712.873A6.839 6.839 0 1 1 .873 7.712 6.838 6.838 0 0 1 7.712.873z" fill-rule="evenodd" data-name="Group 767"/><path data-name="Path 1459" d="M7.678 3.702v8.091" fill="none" stroke="#000" stroke-linecap="round"/><path data-name="Line 435" fill="none" stroke="#000" stroke-linecap="round" d="M3.498 7.56h8"/></g></svg><view id="shift_left" viewBox="1503.08 992 71.35 62.39"/><svg viewBox="-25 -25 71.35 62.39" width="71.35" height="62.39" x="1503.08" y="992" xmlns="http://www.w3.org/2000/svg"><defs><style>.bucls-1{fill:none;stroke:#a3a3a3;stroke-width:.75px}</style></defs><g id="buic_shift_left" transform="rotate(180 28.607 -3.723)"><path id="buPath_1356" data-name="Path 1356" class="bucls-1" d="M58.729-2.02H64.4v-2.535L75.041 1.1 64.4 6.6V4.025h-5.671z" transform="translate(-18.635 -14.66)"/><g id="buRectangle_724" data-name="Rectangle 724" class="bucls-1"><path d="M0 0h2.73v6.5H0z" transform="translate(35.866 -16.916)"/><path fill="none" d="M.375.375h1.98v5.75H.375z" transform="translate(35.866 -16.916)"/></g></g></svg><view id="shift_right" viewBox="1431.73 992 71.35 62.39"/><svg viewBox="-25 -25 71.35 62.39" width="71.35" height="62.39" x="1431.73" y="992" xmlns="http://www.w3.org/2000/svg"><defs><style>.bvcls-1{fill:none;stroke:#a3a3a3;stroke-width:.75px}</style></defs><g id="bvic_shift_right" transform="translate(-35.866 19.839)"><path id="bvPath_1356" data-name="Path 1356" class="bvcls-1" d="M58.729-2.02H64.4v-2.535L75.041 1.1 64.4 6.6V4.025h-5.671z" transform="translate(-18.635 -14.66)"/><g id="bvRectangle_724" data-name="Rectangle 724" class="bvcls-1"><path d="M0 0h2.73v6.5H0z" transform="translate(35.866 -16.916)"/><path fill="none" d="M.375.375h1.98v5.75H.375z" transform="translate(35.866 -16.916)"/></g></g></svg><view id="up_arrow" viewBox="1642.7499999999998 992 68.32 60.58"/><svg viewBox="-25 -25 68.32 60.58" width="68.32" height="60.58" x="1642.7499999999998" y="992" xmlns="http://www.w3.org/2000/svg"><defs><style>.bwcls-1{fill:none;stroke:#707070;stroke-linecap:round;stroke-width:2px}</style></defs><g id="bwuparrow" transform="rotate(180 63.205 195.331)"><path id="bwLine_308" data-name="Line 308" class="bwcls-1" transform="translate(109.5 381.5)" d="M0 0l7.748 7.748"/><path id="bwLine_309" data-name="Line 309" class="bwcls-1" transform="translate(117.248 381.5)" d="M7.748 0L0 7.748"/></g></svg><view id="validate_icon" viewBox="563.89 1142.09 76.7 76.77"/><svg viewBox="-25 -25 76.7 76.77" width="76.7" height="76.77" x="563.89" y="1142.09" xmlns="http://www.w3.org/2000/svg"><path d="M13.35 26.768a13.157 13.157 0 0 1-9.435-3.948A13.351 13.351 0 0 1 13.35 0a13.157 13.157 0 0 1 9.436 3.948 13.351 13.351 0 0 1-9.436 22.82zm0-25.43a11.951 11.951 0 0 0-8.5 3.547 12.012 12.012 0 0 0 8.5 20.545 11.951 11.951 0 0 0 8.5-3.547 12.012 12.012 0 0 0-8.5-20.545zm6.09 7.5a.65.65 0 0 0-.937.067L11.95 16.4l-3.748-3.748a.663.663 0 0 0-.937.937l4.283 4.283c.067.067.067.067.134.067a.066.066 0 0 1 .067.067c.067 0 .134.067.268.067A.4.4 0 0 0 12.28 18l.067-.067c.067 0 .067-.067.134-.067l7.027-8.03a.8.8 0 0 0-.067-1.002z" fill="#fff"/></svg><view id="warning-informational-modal-close" viewBox="72.71 1325.5 72.71 72.71"/><svg width="72.71" height="72.71" viewBox="-25 -25 72.71 72.71" x="72.71" y="1325.5" xmlns="http://www.w3.org/2000/svg"><g data-name="Group 4354"><g data-name="Group 3210" fill="none" stroke="#5b5b5b"><path data-name="Line 86" d="M.353.353l22 22"/><path data-name="Line 87" d="M22.353.353l-22 22"/></g></g></svg><view id="white_cross" viewBox="1324 0 662 842"/><svg width="662" height="842" viewBox="-25 -25 662 842" x="1324" xmlns="http://www.w3.org/2000/svg"><path d="M9.543 99.541l592.945 592.945m0-592.945L9.543 692.486" fill="none" stroke="#FFF" stroke-width="30" stroke-miterlimit="10"/></svg><view id="wrong_icon" viewBox="861.42 1142.09 71.11 71.11"/><svg viewBox="-25 -25 71.11 71.11" width="71.11" height="71.11" x="861.42" y="1142.09" xmlns="http://www.w3.org/2000/svg"><defs><style>.cacls-1{fill:none;stroke:red;stroke-width:3px}</style></defs><g id="caic_wrong" transform="translate(-43.442 -700.936)"><path id="caPath_1389" data-name="Path 1389" class="cacls-1" d="M-13194.5-5079l-18.993 18.993" transform="translate(13258 5781)"/><path id="caPath_1390" data-name="Path 1390" class="cacls-1" d="M-13194.5-5079l-18.993 18.993" transform="rotate(90 -9465.5 4449.993)"/></g></svg></svg>