<?xml version="1.0" encoding="utf-8"?>
<!-- Generator: Adobe Illustrator 16.0.0, SVG Export Plug-In . SVG Version: 6.00 Build 0)  -->
<!DOCTYPE svg PUBLIC "-//W3C//DTD SVG 1.1//EN" "http://www.w3.org/Graphics/SVG/1.1/DTD/svg11.dtd">
<svg version="1.1" id="Capa_1" xmlns="http://www.w3.org/2000/svg" xmlns:xlink="http://www.w3.org/1999/xlink" x="0px" y="0px"
	 width="50px" height="50px" viewBox="0 0 50 50" enable-background="new 0 0 50 50" xml:space="preserve">
<g>
	<g>
		<path fill="#003F79" d="M49.167,0L49.167,0H0.833C0.373,0,0,0.373,0,0.833l0,0V17.5h1.667V1.667h46.667V20H19.167v1.667h30
			c0.461,0,0.834-0.373,0.834-0.833l0,0v-20C50,0.373,49.627,0,49.167,0z"/>
	</g>
</g>
<g>
	<g>
		<rect x="27.5" y="4.167" fill="#003F79" width="16.666" height="1.667"/>
	</g>
</g>
<g>
	<g>
		<rect x="30" y="9.167" fill="#003F79" width="16.666" height="1.667"/>
	</g>
</g>
<g>
	<g>
		<rect x="26.666" y="14.167" fill="#003F79" width="16.668" height="1.667"/>
	</g>
</g>
<g>
	<g>
		<path fill="#003F79" d="M26.6,7.185c-0.57-1.371-2.144-2.021-3.515-1.45c-0.023,0.01-0.047,0.02-0.07,0.03L16.257,9.27
			c0.267-0.552,0.406-1.157,0.409-1.77c0-2.301-1.865-4.167-4.167-4.167c-2.302,0-4.166,1.866-4.166,4.167
			C8.336,8.404,8.637,9.283,9.188,10H9.153c-2.365,0.016-4.477,1.486-5.312,3.7l-2.225,7.667c-0.53,1.375,0.156,2.92,1.532,3.45
			c0.627,0.242,1.323,0.237,1.947-0.011c0.718-0.289,1.276-0.873,1.533-1.603L7.5,20.43v12.06c-0.717-0.551-1.596-0.852-2.5-0.854
			c-2.298-0.003-4.163,1.856-4.167,4.154c-0.002,1.126,0.452,2.203,1.259,2.987C0.813,39.432,0.005,40.746,0,42.184v6.982
			C0,49.627,0.373,50,0.833,50l0,0h8.333C9.627,50,10,49.627,10,49.167c0,0,0,0,0-0.001v-6.982
			c-0.004-1.182-0.553-2.295-1.487-3.018h6.308c-0.934,0.723-1.483,1.836-1.487,3.018v6.982c0,0.461,0.373,0.834,0.833,0.834l0,0
			H22.5c0.46,0,0.833-0.373,0.833-0.833c0,0,0,0,0-0.001v-6.982c-0.005-1.438-0.813-2.752-2.092-3.406
			c1.645-1.604,1.677-4.24,0.071-5.887c-0.989-1.013-2.425-1.453-3.813-1.17V14.673l7.65-3.972C26.521,10.13,27.17,8.556,26.6,7.185
			z M12.5,5C13.881,5,15,6.119,15,7.5S13.881,10,12.5,10c-1.38-0.001-2.499-1.12-2.5-2.5C10,6.119,11.119,5,12.5,5z M5,33.303
			c1.381,0,2.5,1.119,2.5,2.5s-1.119,2.5-2.5,2.5s-2.5-1.119-2.5-2.5C2.501,34.422,3.62,33.305,5,33.303z M8.333,48.334H1.667v-6.15
			C1.668,40.979,2.645,40.002,3.851,40H6.15c1.206,0.002,2.182,0.979,2.184,2.184L8.333,48.334L8.333,48.334z M21.667,42.184v6.15
			H15v-6.15c0.001-1.205,0.979-2.182,2.184-2.184h2.299C20.688,40.002,21.665,40.979,21.667,42.184z M18.333,33.303
			c1.38,0.002,2.499,1.119,2.5,2.5c0,1.381-1.12,2.5-2.5,2.5c-1.381,0-2.5-1.119-2.5-2.5S16.953,33.303,18.333,33.303z
			 M25.075,8.575c-0.111,0.286-0.34,0.511-0.629,0.617l-8.163,4.235c-0.276,0.144-0.45,0.429-0.45,0.74V32.49
			c-1.561,1.154-2.102,3.242-1.297,5.01h-1.203V23.333h-1.667V37.5h-2.87c0.237-0.523,0.362-1.092,0.367-1.666h0.003V15
			c0-0.46-0.373-0.833-0.833-0.833c-0.364,0-0.686,0.236-0.795,0.583L5.05,22.668c-0.188,0.52-0.763,0.789-1.283,0.6
			C3.73,23.255,3.695,23.24,3.66,23.223c-0.481-0.249-0.685-0.829-0.466-1.323l2.225-7.667c0.6-1.541,2.081-2.558,3.734-2.565h5.9
			c0.134,0,0.265-0.032,0.384-0.093l8.283-4.299c0.497-0.208,1.069,0.005,1.311,0.486C25.16,8.013,25.176,8.309,25.075,8.575z"/>
	</g>
</g>
<g>
	<g>
		<path fill="#003F79" d="M34.574,38.777c1.648-1.605,1.683-4.243,0.076-5.893c-1.605-1.646-4.243-1.683-5.893-0.076
			c-1.646,1.605-1.683,4.243-0.076,5.893c0.024,0.025,0.051,0.052,0.077,0.076c-1.28,0.654-2.088,1.969-2.094,3.406v6.981
			c0,0.461,0.373,0.834,0.834,0.834l0,0h8.334c0.459,0,0.832-0.373,0.832-0.833c0,0,0,0,0-0.001v-6.981
			C36.662,40.746,35.854,39.432,34.574,38.777z M31.666,33.303c1.381,0,2.5,1.119,2.5,2.5s-1.119,2.5-2.5,2.5
			c-1.38,0-2.5-1.119-2.5-2.5C29.168,34.422,30.287,33.305,31.666,33.303z M35,48.334h-6.666v-6.15
			c0.001-1.205,0.979-2.182,2.184-2.184h2.299c1.205,0.002,2.183,0.979,2.185,2.184L35,48.334L35,48.334z"/>
	</g>
</g>
<g>
	<g>
		<path fill="#003F79" d="M47.908,38.777c1.646-1.605,1.682-4.243,0.076-5.893c-1.605-1.646-4.244-1.683-5.894-0.076
			c-1.647,1.605-1.682,4.243-0.075,5.893c0.024,0.025,0.051,0.052,0.075,0.076c-1.278,0.654-2.087,1.969-2.092,3.406v6.981
			C40,49.627,40.373,50,40.833,50c0,0,0,0,0.001,0h8.332C49.627,50,50,49.627,50,49.167c0,0,0,0,0-0.001v-6.982
			C49.995,40.746,49.188,39.432,47.908,38.777z M45,33.303c1.381,0,2.5,1.119,2.5,2.5s-1.119,2.5-2.5,2.5s-2.5-1.119-2.5-2.5
			C42.502,34.422,43.62,33.305,45,33.303z M48.334,48.334h-6.668v-6.15c0.002-1.205,0.979-2.182,2.186-2.184h2.299
			c1.205,0.002,2.183,0.979,2.185,2.184L48.334,48.334L48.334,48.334z"/>
	</g>
</g>
</svg>
