<?xml version="1.0" encoding="utf-8"?>
<!-- Generator: Adobe Illustrator 16.0.0, SVG Export Plug-In . SVG Version: 6.00 Build 0)  -->
<!DOCTYPE svg PUBLIC "-//W3C//DTD SVG 1.1//EN" "http://www.w3.org/Graphics/SVG/1.1/DTD/svg11.dtd">
<svg version="1.1" id="Capa_1" xmlns="http://www.w3.org/2000/svg" xmlns:xlink="http://www.w3.org/1999/xlink" x="0px" y="0px"
	 width="50px" height="50px" viewBox="0 0 50 50" enable-background="new 0 0 50 50" xml:space="preserve">
<g>
	<g>
		<path fill="#003F79" d="M28.092,15.552c0.688-0.758,1.072-1.744,1.075-2.768v-1.667c0-2.301-1.866-4.167-4.167-4.167
			s-4.167,1.866-4.167,4.167v1.667c0.003,1.024,0.387,2.01,1.075,2.768c-1.642,0.596-2.737,2.153-2.742,3.899v3.333h1.667v-3.333
			c0-1.381,1.119-2.5,2.5-2.5h0.833v5.833h1.667v-5.833h0.833c1.381,0,2.5,1.119,2.5,2.5v3.333h1.667v-3.333
			C30.828,17.705,29.732,16.148,28.092,15.552z M27.5,12.785c0,1.381-1.119,2.5-2.5,2.5c-1.38,0-2.5-1.119-2.5-2.5v-1.667
			c0-1.381,1.12-2.5,2.5-2.5c1.381,0,2.5,1.119,2.5,2.5V12.785z"/>
	</g>
</g>
<g>
	<g>
		<path fill="#003F79" d="M22.36,41.489l-1.527-2.287v-6.417c-0.003-2.301-1.867-4.164-4.167-4.167H15v1.667h1.667
			c1.38,0,2.5,1.119,2.5,2.5v6.667c0,0.165,0.049,0.325,0.14,0.462l0.804,1.205H17.5v-8.334h-1.667v9.167
			c0,0.46,0.373,0.833,0.833,0.833h5c0.46,0,0.833-0.373,0.833-0.833C22.5,41.787,22.452,41.627,22.36,41.489z"/>
	</g>
</g>
<g>
	<g>
		<path fill="#003F79" d="M14.167,12.785v-1.667c0-2.301-1.865-4.167-4.167-4.167s-4.167,1.866-4.167,4.167v1.667
			c0,1.115,0.448,2.183,1.245,2.963c-1.521,0.704-2.59,2.122-2.847,3.778c-0.728-0.583-1.631-0.903-2.564-0.908H0.833
			C0.373,18.618,0,18.992,0,19.452c0,0.035,0.002,0.069,0.006,0.103L1.458,31.17c0.16,1.256,1.144,2.247,2.397,2.417l-2.979,8.935
			l1.58,0.527l3.144-9.43h6.9v9.166h1.667v-10C14.165,30.484,12.3,28.621,10,28.618H6.667c-0.46,0-0.833-0.373-0.833-0.833v-7.5
			c0-1.841,1.493-3.333,3.333-3.333v9.167h1.667v-8.703c1.028,0.591,1.663,1.685,1.667,2.87v7.5h1.667v-7.5
			c-0.001-1.56-0.732-3.029-1.975-3.972C13.416,15.558,14.163,14.224,14.167,12.785z M6.667,30.285H10
			c1.056,0.004,1.995,0.672,2.347,1.666H4.231c-0.569,0-1.048-0.424-1.12-0.988L1.777,20.285c1.337,0.059,2.391,1.161,2.389,2.5v5
			C4.167,29.166,5.286,30.285,6.667,30.285z M12.5,12.785c0,1.381-1.119,2.5-2.5,2.5s-2.5-1.119-2.5-2.5v-1.667
			c0-1.381,1.119-2.5,2.5-2.5s2.5,1.119,2.5,2.5V12.785z"/>
	</g>
</g>
<g>
	<g>
		<polygon fill="#003F79" points="15.833,24.452 15.833,26.118 24.167,26.118 24.167,42.785 25.834,42.785 25.834,26.118 
			34.167,26.118 34.167,24.452 		"/>
	</g>
</g>
<g>
	<g>
		<path fill="#003F79" d="M30.834,39.452v-6.667c0-1.381,1.119-2.5,2.5-2.5H35v-1.667h-1.666c-2.301,0.003-4.164,1.866-4.167,4.167
			v6.417l-1.526,2.29c-0.254,0.383-0.148,0.9,0.234,1.154c0.137,0.09,0.295,0.139,0.459,0.139h5c0.46,0,0.833-0.373,0.833-0.833
			v-9.167H32.5v8.334h-2.609l0.803-1.205C30.785,39.777,30.834,39.617,30.834,39.452z"/>
	</g>
</g>
<g>
	<g>
		<path fill="#003F79" d="M48.543,31.167l1.451-11.615c0.055-0.457-0.271-0.872-0.729-0.928c-0.031-0.004-0.064-0.006-0.099-0.006
			h-0.834c-0.933,0.004-1.836,0.324-2.563,0.908c-0.258-1.656-1.326-3.074-2.848-3.778c0.796-0.78,1.245-1.849,1.244-2.963v-1.667
			c0-2.301-1.865-4.167-4.167-4.167c-2.301,0-4.166,1.866-4.166,4.167v1.667c0.004,1.439,0.75,2.773,1.976,3.528
			c-1.242,0.943-1.975,2.412-1.976,3.972v7.5H37.5v-7.5c0.004-1.186,0.639-2.279,1.667-2.87v8.703h1.667v-9.167
			c1.841,0,3.333,1.492,3.333,3.333v7.5c0,0.46-0.373,0.833-0.833,0.833H40c-2.3,0.003-4.164,1.867-4.166,4.167v10H37.5v-9.166h6.9
			l3.144,9.43l1.583-0.526l-2.982-8.938C47.398,33.414,48.383,32.422,48.543,31.167z M42.5,12.785c0,1.381-1.119,2.5-2.5,2.5
			s-2.5-1.119-2.5-2.5v-1.667c0-1.381,1.119-2.5,2.5-2.5s2.5,1.119,2.5,2.5V12.785z M45.77,31.951h-8.115
			c0.353-0.994,1.291-1.662,2.347-1.666h3.334c1.381,0,2.5-1.119,2.5-2.5v-5c-0.002-1.339,1.052-2.441,2.39-2.5l-1.334,10.676
			C46.818,31.525,46.339,31.951,45.77,31.951z"/>
	</g>
</g>
</svg>
