<?xml version="1.0" encoding="utf-8"?>
<!-- Generator: Adobe Illustrator 16.0.0, SVG Export Plug-In . SVG Version: 6.00 Build 0)  -->
<!DOCTYPE svg PUBLIC "-//W3C//DTD SVG 1.1//EN" "http://www.w3.org/Graphics/SVG/1.1/DTD/svg11.dtd">
<svg version="1.1" id="Layer_1" xmlns="http://www.w3.org/2000/svg" xmlns:xlink="http://www.w3.org/1999/xlink" x="0px" y="0px"
	 width="37.469px" height="39.781px" viewBox="0 0 37.469 39.781" enable-background="new 0 0 37.469 39.781" xml:space="preserve">
<path fill="#003F79" d="M2.75,34.875l14.719,4.75c0.344,0.094,0.781,0.156,1.219,0.156c0.406,0,0.844-0.063,1.158-0.156
	l14.875-4.563c0.655-0.188,1.188-0.938,1.188-1.625v-5.221c0.906-0.404,1.564-1.279,1.564-2.279v-1.875
	c0-1.031-0.656-1.875-1.564-2.281v-4.594c0-0.563-0.344-0.906-0.813-0.906c-0.125,0-0.25,0.031-0.375,0.063l-3.938,1.406
	c-1.625-2.031-3.814-3.563-6.375-4.375c-0.406,0.375-0.814,0.688-1.281,0.969c2.531,0.563,4.75,1.938,6.406,3.844l-9.689,3.5
	c-0.344,0.125-0.78,0.188-1.25,0.188c-0.405,0-0.813-0.063-1.125-0.155L7.75,18.469c1.688-2.031,3.938-3.5,6.594-4.094
	c-0.469-0.281-0.875-0.594-1.281-0.969c-2.688,0.813-4.938,2.438-6.594,4.625l-3.719-1.25c-0.125-0.031-0.25-0.063-0.344-0.063
	c-0.469,0-0.813,0.344-0.813,0.906v4.155c-0.938,0.406-1.594,1.281-1.594,2.281v1.875c0,1.03,0.656,1.875,1.563,2.28v5
	C1.563,33.906,2.093,34.656,2.75,34.875z M34.844,22.813c0.781,0,1.406,0.563,1.406,1.25v1.875c0,0.688-0.625,1.25-1.406,1.25
	s-1.406-0.563-1.406-1.25v-1.875C33.438,23.375,34.063,22.813,34.844,22.813z M19.375,23.094C19.688,23.063,20,23,20.25,22.906
	l14.438-5.188v3.845c-1.405,0.063-2.5,1.155-2.5,2.5v1.875c0,1.345,1.095,2.438,2.5,2.5v5c0,0.125-0.188,0.375-0.313,0.405
	L19.5,38.438c-0.031,0-0.063,0.031-0.125,0.031V23.094z M2.813,18.125l14.25,4.781c0.345,0.125,0.72,0.188,1.063,0.188v15.375
	c-0.125-0.031-0.219-0.031-0.28-0.063l-14.72-4.75C3,33.625,2.813,33.343,2.813,33.218v-4.78c1.406-0.063,2.5-1.155,2.5-2.5v-1.875
	c0-1.345-1.094-2.438-2.5-2.5V18.125z M1.25,25.938v-1.875c0-0.688,0.625-1.25,1.406-1.25c0.781,0,1.406,0.563,1.406,1.25v1.875
	c0,0.688-0.625,1.25-1.406,1.25C1.875,27.188,1.25,26.625,1.25,25.938z"/>
<path fill="#003F79" d="M18.734,14.375c3.969,0,7.188-3.219,7.188-7.188S22.703,0,18.734,0c-3.969,0-7.188,3.219-7.188,7.188
	S14.766,14.375,18.734,14.375z M18.734,1.25c3.282,0,5.938,2.656,5.938,5.938c0,3.282-2.656,5.937-5.938,5.937
	s-5.938-2.656-5.938-5.938C12.797,3.905,15.453,1.25,18.734,1.25z"/>
</svg>
