<?xml version="1.0" encoding="utf-8"?>
<!-- Generator: Adobe Illustrator 16.0.0, SVG Export Plug-In . SVG Version: 6.00 Build 0)  -->
<!DOCTYPE svg PUBLIC "-//W3C//DTD SVG 1.1//EN" "http://www.w3.org/Graphics/SVG/1.1/DTD/svg11.dtd">
<svg version="1.1" id="Capa_1" xmlns="http://www.w3.org/2000/svg" xmlns:xlink="http://www.w3.org/1999/xlink" x="0px" y="0px"
	 width="50px" height="50px" viewBox="0 0 50 50" enable-background="new 0 0 50 50" xml:space="preserve">
<g>
	<g>
		<path fill="#0A6BB3" d="M44.088,19.691l-0.008-0.033c-0.129-0.523-0.658-0.843-1.182-0.713s-0.844,0.659-0.714,1.183l0.006,0.023
			c0.108,0.447,0.508,0.747,0.948,0.747c0.076,0,0.153-0.009,0.23-0.027C43.894,20.743,44.215,20.215,44.088,19.691z"/>
	</g>
</g>
<g>
	<g>
		<path fill="#0A6BB3" d="M18.231,31.861c-2.428-1.465-3.877-4.031-3.877-6.862c0-0.875,0.14-1.735,0.417-2.556
			c0.172-0.511-0.103-1.065-0.614-1.237c-0.511-0.172-1.065,0.103-1.237,0.614c-0.344,1.022-0.519,2.092-0.519,3.179
			c0,3.522,1.802,6.711,4.821,8.534c0.158,0.095,0.332,0.141,0.503,0.141c0.331,0,0.653-0.169,0.837-0.473
			C18.841,32.739,18.693,32.139,18.231,31.861z"/>
	</g>
</g>
<g>
	<g>
		<path fill="#0A6BB3" d="M29.188,17.747c-1.854-1.746-4.278-2.707-6.826-2.707c-1.193,0-2.361,0.209-3.47,0.622
			c-0.505,0.188-0.763,0.75-0.575,1.255s0.75,0.763,1.256,0.575c0.891-0.332,1.829-0.5,2.79-0.5c2.048,0,3.997,0.773,5.488,2.176
			c0.188,0.178,0.429,0.266,0.668,0.266c0.26,0,0.52-0.103,0.712-0.307C29.6,18.734,29.58,18.116,29.188,17.747z"/>
	</g>
</g>
<g>
	<g>
		<path fill="#0A6BB3" d="M49.023,25.293h-7.346v-2.02c0-0.982-0.799-1.781-1.781-1.781h-1.311c-0.672-3.12-2.218-5.962-4.486-8.231
			c-3.851-3.851-9.352-5.567-14.716-4.594c-0.531,0.096-0.883,0.604-0.787,1.135s0.604,0.882,1.135,0.786
			c4.734-0.859,9.588,0.656,12.987,4.054c1.902,1.902,3.229,4.26,3.864,6.85h-5.331c-0.981,0-1.781,0.799-1.781,1.781v2.02h-7.346
			c-0.539,0-0.977,0.437-0.977,0.976v5.99c0,0.917,0.357,1.752,0.938,2.373v5.012c-3.81-0.065-7.367-1.572-10.083-4.288
			c-3.486-3.485-4.979-8.454-3.995-13.292c0.107-0.528-0.234-1.044-0.762-1.151c-0.529-0.107-1.044,0.234-1.152,0.762
			c-1.115,5.481,0.577,11.112,4.527,15.063c3.04,3.04,7.18,4.784,11.464,4.858v3.539c0,0.091,0.006,0.182,0.017,0.27
			C10.969,45.266,1.953,36.166,1.953,25c0-3.492,0.888-6.905,2.575-9.93l3.295,3.311c0.183,0.184,0.432,0.288,0.692,0.288h6.142
			l6.021,6.021c0.19,0.19,0.44,0.286,0.69,0.286s0.5-0.095,0.69-0.286c0.381-0.381,0.381-1,0-1.381l-6.021-6.021v-6.142
			c0-0.26-0.103-0.508-0.287-0.691l-3.304-3.296c3.021-1.681,6.429-2.566,9.915-2.566c7.921,0,15.194,4.646,18.526,11.836
			c0.166,0.356,0.519,0.566,0.887,0.566c0.138,0,0.277-0.029,0.41-0.091c0.489-0.227,0.702-0.807,0.476-1.296
			c-1.77-3.817-4.573-7.052-8.106-9.354c-3.627-2.364-7.844-3.613-12.192-3.613c-4.006,0-7.918,1.067-11.347,3.09L8.203,2.925
			C7.924,2.646,7.504,2.563,7.139,2.714C6.775,2.865,6.537,3.221,6.537,3.616V9.15H0.986c-0.395,0-0.75,0.237-0.902,0.602
			s-0.069,0.784,0.209,1.063L3.1,13.634C1.071,17.067,0,20.986,0,25c0,5.973,2.326,11.588,6.549,15.811
			c4.224,4.225,9.839,6.55,15.812,6.55l24.473,0.001c1.229,0,2.228-0.999,2.228-2.228v-10.5C49.667,33.987,50,33.148,50,32.258
			V26.27l0,0C50,25.73,49.563,25.293,49.023,25.293z M8.49,5.969l5.594,5.581v3.78L8.49,9.723V5.969z M7.108,11.103l5.595,5.611
			H8.92l-5.584-5.611H7.108z M31.424,23.445h8.301v1.848h-8.301V23.445z M47.109,40.721h-6.408c-0.539,0-0.977,0.438-0.977,0.977
			s0.438,0.977,0.977,0.977h6.408v2.46c0,0.151-0.124,0.274-0.275,0.274H25.512c-0.008,0-0.014,0-0.021,0h-1.187
			c-0.146-0.006-0.264-0.127-0.264-0.274v-9.446c0.191,0.033,0.387,0.051,0.587,0.051h8.053c0.174,1.443,1.405,2.566,2.895,2.566
			c1.492,0,2.725-1.126,2.895-2.572l8.051,0.004c0,0,0.001,0,0.002,0c0.199,0,0.395-0.018,0.587-0.049L47.109,40.721L47.109,40.721z
			 M34.611,35.39v-1.717h1.926v1.717c0,0.53-0.432,0.962-0.963,0.962S34.611,35.92,34.611,35.39z M48.047,32.258
			c0,0.408-0.158,0.791-0.447,1.08c-0.288,0.287-0.671,0.446-1.078,0.446h-0.001l-8.03-0.005v-0.895
			c0-0.643-0.522-1.164-1.164-1.164h-3.504c-0.642,0-1.164,0.521-1.164,1.164v0.9h-8.031c-0.841,0-1.525-0.684-1.525-1.525v-5.014
			h24.945V32.258L48.047,32.258z"/>
	</g>
</g>
<g>
	<g>
		<path fill="#0A6BB3" d="M36.607,41.007c-0.182-0.182-0.434-0.286-0.691-0.286s-0.508,0.104-0.691,0.286
			c-0.182,0.182-0.285,0.434-0.285,0.69s0.104,0.509,0.285,0.69c0.184,0.182,0.434,0.286,0.691,0.286s0.508-0.104,0.691-0.286
			c0.182-0.182,0.285-0.434,0.285-0.69S36.789,41.188,36.607,41.007z"/>
	</g>
</g>
</svg>
