<?xml version="1.0" encoding="utf-8"?>
<!-- Generator: Adobe Illustrator 16.0.0, SVG Export Plug-In . SVG Version: 6.00 Build 0)  -->
<!DOCTYPE svg PUBLIC "-//W3C//DTD SVG 1.1//EN" "http://www.w3.org/Graphics/SVG/1.1/DTD/svg11.dtd">
<svg version="1.1" id="Capa_1" xmlns="http://www.w3.org/2000/svg" xmlns:xlink="http://www.w3.org/1999/xlink" x="0px" y="0px"
	 width="50px" height="50px" viewBox="0 0 50 50" enable-background="new 0 0 50 50" xml:space="preserve">
<g>
	<g>
		<path fill="#003F79" d="M15.837,11.461c-0.199-0.639-0.65-1.169-1.249-1.467l-1.68-0.841c-0.364-0.182-0.511-0.624-0.33-0.987
			c0.125-0.25,0.379-0.407,0.658-0.407h0.251c0.406,0.001,0.735,0.33,0.736,0.736v0.126h1.724V8.495
			c-0.004-1.071-0.702-2.016-1.724-2.335V5.172H12.5V6.16c-1.293,0.402-2.015,1.776-1.613,3.069c0.199,0.639,0.65,1.169,1.249,1.467
			l1.68,0.84c0.364,0.182,0.511,0.624,0.33,0.988c-0.125,0.249-0.379,0.407-0.658,0.407h-0.251c-0.406-0.001-0.735-0.33-0.736-0.736
			v-0.126h-1.724v0.126c0.004,1.071,0.702,2.016,1.724,2.335v0.987h1.724V14.53C15.517,14.128,16.239,12.754,15.837,11.461z"/>
	</g>
</g>
<g>
	<g>
		<rect x="9.914" y="25" fill="#003F79" width="14.655" height="1.725"/>
	</g>
</g>
<g>
	<g>
		<rect x="9.914" y="28.448" fill="#003F79" width="14.655" height="1.724"/>
	</g>
</g>
<g>
	<g>
		<rect x="9.914" y="31.896" fill="#003F79" width="10.345" height="1.725"/>
	</g>
</g>
<g>
	<g>
		<rect x="15.086" y="21.552" fill="#003F79" width="9.482" height="1.724"/>
	</g>
</g>
<g>
	<g>
		<rect x="19.396" y="9.483" fill="#003F79" width="15.518" height="1.724"/>
	</g>
</g>
<g>
	<g>
		<rect x="19.396" y="12.931" fill="#003F79" width="12.068" height="1.724"/>
	</g>
</g>
<g>
	<g>
		<rect x="24.569" y="6.035" fill="#003F79" width="10.345" height="1.724"/>
	</g>
</g>
<g>
	<g>
		<path fill="#003F79" d="M45.259,39.654H40.4l3.433-10.861c1.304-4.092-0.683-8.509-4.608-10.25V8.621h4.312
			c0.476,0,0.86-0.386,0.86-0.862V3.448C44.396,1.544,42.854,0,40.948,0H9.052C7.147,0,5.604,1.544,5.604,3.448v32.759H2.155
			c-0.476,0-0.862,0.386-0.862,0.861v3.449c0,1.903,1.544,3.446,3.448,3.446h18.226c0.392,1.519,1.758,2.581,3.326,2.587v2.586
			c0,0.478,0.387,0.862,0.861,0.862h17.242c0.477,0,0.861-0.386,0.861-0.862v-2.586c1.904,0,3.448-1.544,3.448-3.447
			C48.706,41.199,47.163,39.654,45.259,39.654z M39.225,3.448c0-0.952,0.771-1.724,1.725-1.724s1.724,0.772,1.724,1.724v3.448
			h-3.446V3.448H39.225z M40.527,21.494c1.773,1.774,2.414,4.387,1.658,6.779l0.002-0.002l-3.595,11.385h-6.467l-3.028-11.522
			c-0.604-2.313,0.062-4.772,1.748-6.466l0.172-0.172C33.645,18.869,37.9,18.868,40.527,21.494z M7.328,3.448
			c0-0.952,0.772-1.724,1.724-1.724H37.98c-0.312,0.522-0.477,1.117-0.479,1.724v14.535c-2.788-0.583-5.683,0.277-7.698,2.29
			l-0.173,0.172c-2.119,2.128-2.955,5.218-2.196,8.124l2.008,7.64H7.328V3.448z M22.967,42.241H4.741
			c-0.952,0-1.724-0.771-1.724-1.724v-2.586h26.877l0.453,1.723h-4.056C24.726,39.661,23.359,40.725,22.967,42.241z M43.535,48.275
			H28.018v-1.725h15.519L43.535,48.275L43.535,48.275z M45.259,44.828H26.293c-0.952,0-1.724-0.771-1.724-1.725
			s0.772-1.726,1.724-1.726h18.966c0.952,0,1.724,0.772,1.724,1.726S46.211,44.828,45.259,44.828z"/>
	</g>
</g>
<g>
	<g>
		<rect x="21.121" y="6.035" fill="#003F79" width="1.724" height="1.724"/>
	</g>
</g>
<g>
	<g>
		<rect x="11.638" y="21.552" fill="#003F79" width="1.725" height="1.724"/>
	</g>
</g>
<g>
	<g>
		<path fill="#003F79" d="M33.707,23.965l-1.035-1.379c-1.307,0.973-2.074,2.508-2.068,4.139c-0.002,0.711,0.146,1.416,0.433,2.067
			l1.578-0.688C31.977,26.637,32.428,24.925,33.707,23.965z"/>
	</g>
</g>
<g>
	<g>
		<path fill="#003F79" d="M34.741,21.654l0.345,1.69c0.455-0.092,0.924-0.092,1.379,0l0.346-1.69
			C36.127,21.518,35.424,21.518,34.741,21.654z"/>
	</g>
</g>
</svg>
