<?xml version="1.0" encoding="utf-8"?>
<!-- Generator: Adobe Illustrator 16.0.0, SVG Export Plug-In . SVG Version: 6.00 Build 0)  -->
<!DOCTYPE svg PUBLIC "-//W3C//DTD SVG 1.1//EN" "http://www.w3.org/Graphics/SVG/1.1/DTD/svg11.dtd">
<svg version="1.1" id="Capa_1" xmlns="http://www.w3.org/2000/svg" xmlns:xlink="http://www.w3.org/1999/xlink" x="0px" y="0px"
	 width="50px" height="50px" viewBox="280.999 280.999 50 50" enable-background="new 280.999 280.999 50 50" xml:space="preserve">
<g>
	<g>
		<path fill="#0A6BB3" d="M322.421,305.537c-0.797,0-1.413,0.614-1.413,1.413v19.305h-10.014v-7.884
			c0-0.738-0.616-1.386-1.361-1.386h-7.24c-0.797,0-1.438,0.646-1.438,1.386v7.884h-9.989v-18.663c0-0.746-0.616-1.365-1.413-1.365
			c-0.744,0-1.36,0.619-1.36,1.365v20.076c0,0.745,0.616,1.364,1.36,1.364h12.84c0.744,0,1.36-0.619,1.36-1.364v-7.883h4.468v7.883
			c0,0.745,0.616,1.364,1.412,1.364h12.788c0.744,0,1.36-0.619,1.36-1.364V306.95C323.782,306.151,323.166,305.537,322.421,305.537z
			"/>
		<path fill="#0A6BB3" d="M330.098,306.639l-11.144-11.192v-7.631c0-0.794-0.642-1.408-1.438-1.408c-0.744,0-1.36,0.613-1.36,1.408
			v4.832l-9.192-9.247c-0.282-0.285-0.617-0.438-0.951-0.438c-0.385,0-0.719,0.159-1.001,0.438l-23.084,23.084
			c-0.554,0.553-0.59,1.441,0,1.95c0.513,0.592,1.397,0.554,1.951,0l22.134-22.082l22.083,22.291c0.23,0.229,0.565,0.36,1.002,0.36
			c0.385,0,0.719-0.131,1.001-0.36C330.613,308.128,330.651,307.197,330.098,306.639z"/>
	</g>
</g>
</svg>
