<?xml version="1.0" encoding="utf-8"?>
<!-- Generator: Adobe Illustrator 16.0.0, SVG Export Plug-In . SVG Version: 6.00 Build 0)  -->
<!DOCTYPE svg PUBLIC "-//W3C//DTD SVG 1.1//EN" "http://www.w3.org/Graphics/SVG/1.1/DTD/svg11.dtd">
<svg version="1.1" id="Capa_1" xmlns="http://www.w3.org/2000/svg" xmlns:xlink="http://www.w3.org/1999/xlink" x="0px" y="0px"
	 width="50px" height="50px" viewBox="0 0 50 50" enable-background="new 0 0 50 50" xml:space="preserve">
<g>
	<g>
		<path fill="#003F79" d="M47.916,18.747h-4.145c-0.295-0.893-0.654-1.763-1.074-2.604l2.928-2.927c0,0,0,0,0-0.001
			c0.814-0.813,0.814-2.133,0-2.946L39.73,4.375c-0.824-0.787-2.121-0.787-2.945,0l-2.932,2.929
			c-0.84-0.419-1.711-0.778-2.604-1.073V2.083C31.25,0.933,30.316,0,29.166,0h-8.333c-1.151,0-2.083,0.933-2.083,2.083v4.148
			c-0.894,0.294-1.765,0.652-2.607,1.071l-2.927-2.927c-0.825-0.788-2.123-0.788-2.947,0l-5.894,5.894
			c-0.813,0.814-0.813,2.132,0,2.946l2.929,2.932c-0.419,0.841-0.778,1.711-1.073,2.604H2.083C0.933,18.75,0,19.683,0,20.833V25
			h2.083v-4.167h4.916c0.464,0,0.873-0.307,1.001-0.753c0.361-1.262,0.862-2.48,1.494-3.631c0.225-0.406,0.153-0.912-0.175-1.24
			l-3.47-3.467l5.893-5.893l3.471,3.47c0.328,0.328,0.833,0.399,1.24,0.175C17.602,8.863,18.819,8.362,20.08,8
			c0.446-0.128,0.753-0.537,0.753-1.001V2.083h8.333v4.916c0,0.464,0.309,0.873,0.754,1.001c1.262,0.361,2.48,0.862,3.632,1.494
			c0.406,0.224,0.911,0.153,1.239-0.175l3.467-3.47l5.893,5.893l-3.469,3.47c-0.328,0.328-0.399,0.834-0.176,1.241
			c0.631,1.15,1.133,2.367,1.494,3.628c0.129,0.446,0.537,0.753,1.001,0.753h4.915V25H50v-4.17
			C50,19.68,49.066,18.747,47.916,18.747z"/>
	</g>
</g>
<g>
	<g>
		<path fill="#003F79" d="M25,13.542c-5.753,0-10.417,4.664-10.417,10.417V25h2.083v-1.042c0-4.603,3.731-8.333,8.333-8.333
			c4.603,0,8.334,3.731,8.334,8.333V25h2.082v-1.042C35.416,18.206,30.753,13.542,25,13.542z"/>
	</g>
</g>
<g>
	<g>
		<rect x="23.958" y="4.167" fill="#003F79" width="2.083" height="2.083"/>
	</g>
</g>
<g>
	<g>
		<rect x="10.417" y="10.417" fill="#003F79" width="2.083" height="2.083"/>
	</g>
</g>
<g>
	<g>
		<rect x="4.167" y="22.917" fill="#003F79" width="2.083" height="2.083"/>
	</g>
</g>
<g>
	<g>
		<rect x="43.75" y="22.917" fill="#003F79" width="2.084" height="2.083"/>
	</g>
</g>
<g>
	<g>
		<rect x="37.5" y="10.417" fill="#003F79" width="2.084" height="2.083"/>
	</g>
</g>
<g>
	<g>
		<path fill="#003F79" d="M12.5,39.584H2.083C0.933,39.584,0,40.516,0,41.666v6.25C0,49.066,0.933,50,2.083,50H12.5
			c1.15,0,2.083-0.934,2.083-2.084v-6.25C14.583,40.516,13.65,39.584,12.5,39.584z M12.5,47.916H2.083v-6.25H12.5V47.916z"/>
	</g>
</g>
<g>
	<g>
		<path fill="#003F79" d="M47.916,39.584H37.5c-1.15,0-2.084,0.932-2.084,2.082v6.25c0,1.15,0.934,2.084,2.084,2.084h10.416
			C49.066,50,50,49.066,50,47.916v-6.25C50,40.516,49.066,39.584,47.916,39.584z M47.916,47.916H37.5v-6.25h10.416V47.916z"/>
	</g>
</g>
<g>
	<g>
		<path fill="#003F79" d="M30.209,39.584H19.792c-1.15,0-2.083,0.932-2.083,2.082v6.25c0,1.15,0.933,2.084,2.083,2.084h10.417
			c1.15,0,2.082-0.934,2.082-2.084v-6.25C32.291,40.516,31.359,39.584,30.209,39.584z M30.209,47.916L30.209,47.916H19.792v-6.25
			h10.417V47.916z"/>
	</g>
</g>
<g>
	<g>
		<path fill="#003F79" d="M42.709,31.25H7.292c-0.575,0-1.042,0.467-1.042,1.041V37.5h2.083v-4.166h33.333V37.5h2.084v-5.209
			C43.75,31.717,43.283,31.25,42.709,31.25z"/>
	</g>
</g>
<g>
	<g>
		<rect x="23.958" y="23.958" fill="#003F79" width="2.083" height="13.542"/>
	</g>
</g>
<g>
	<g>
		<rect x="4.167" y="43.75" fill="#003F79" width="2.083" height="2.084"/>
	</g>
</g>
<g>
	<g>
		<rect x="8.333" y="43.75" fill="#003F79" width="2.083" height="2.084"/>
	</g>
</g>
<g>
	<g>
		<rect x="21.875" y="43.75" fill="#003F79" width="2.083" height="2.084"/>
	</g>
</g>
<g>
	<g>
		<rect x="26.042" y="43.75" fill="#003F79" width="2.083" height="2.084"/>
	</g>
</g>
<g>
	<g>
		<rect x="39.583" y="43.75" fill="#003F79" width="2.083" height="2.084"/>
	</g>
</g>
<g>
	<g>
		<rect x="43.75" y="43.75" fill="#003F79" width="2.084" height="2.084"/>
	</g>
</g>
<g>
	<g>
		<path fill="#003F79" d="M25,18.75c-2.876,0-5.208,2.332-5.208,5.208V25h2.083v-1.042c0-1.726,1.399-3.125,3.125-3.125
			c1.727,0,3.125,1.399,3.125,3.125V25h2.084v-1.042C30.209,21.082,27.877,18.75,25,18.75z"/>
	</g>
</g>
</svg>
