<?xml version="1.0" encoding="utf-8"?>
<!-- Generator: Adobe Illustrator 16.0.0, SVG Export Plug-In . SVG Version: 6.00 Build 0)  -->
<!DOCTYPE svg PUBLIC "-//W3C//DTD SVG 1.1//EN" "http://www.w3.org/Graphics/SVG/1.1/DTD/svg11.dtd">
<svg version="1.1" id="Capa_1" xmlns="http://www.w3.org/2000/svg" xmlns:xlink="http://www.w3.org/1999/xlink" x="0px" y="0px"
	 width="50px" height="50px" viewBox="0 0 50 50" enable-background="new 0 0 50 50" xml:space="preserve">
<g>
	<g>
		<path fill="#003F79" d="M18.044,10.218L17.059,9.37V8.963l0.985-0.848c0.229-0.198,0.333-0.505,0.271-0.802
			c-0.142-0.667-0.36-1.316-0.649-1.934c-0.125-0.27-0.384-0.453-0.68-0.479l-1.284-0.117c-0.087-0.125-0.177-0.248-0.271-0.366
			l0.277-1.21c0.068-0.295-0.03-0.604-0.256-0.807c-0.513-0.46-1.075-0.862-1.676-1.2c-0.257-0.144-0.57-0.141-0.825,0.007
			l-1.104,0.641c-0.149-0.051-0.302-0.099-0.46-0.143l-0.51-1.198C10.746,0.199,10.444,0,10.11,0H8.224
			C7.89,0,7.588,0.199,7.457,0.506l-0.51,1.198c-0.159,0.044-0.312,0.092-0.46,0.143L5.382,1.206C5.127,1.059,4.814,1.057,4.557,1.2
			C3.956,1.537,3.394,1.94,2.881,2.399C2.655,2.602,2.557,2.911,2.625,3.207l0.277,1.209C2.809,4.535,2.718,4.657,2.631,4.783
			L1.347,4.9c-0.296,0.027-0.555,0.209-0.68,0.479C0.378,5.997,0.16,6.646,0.018,7.313C-0.044,7.61,0.06,7.917,0.29,8.115
			l0.985,0.848V9.37L0.29,10.218c-0.23,0.198-0.333,0.506-0.272,0.803c0.143,0.667,0.36,1.315,0.649,1.934
			c0.125,0.27,0.384,0.452,0.68,0.479l1.284,0.117c0.087,0.125,0.177,0.247,0.271,0.366l-0.277,1.21
			c-0.068,0.296,0.03,0.605,0.256,0.807c0.513,0.46,1.075,0.862,1.676,1.199c0.256,0.144,0.57,0.142,0.824-0.006l1.105-0.641
			c0.149,0.051,0.302,0.1,0.46,0.144l0.51,1.198c0.131,0.307,0.433,0.506,0.767,0.506h1.886c0.334,0,0.636-0.199,0.767-0.506
			l0.51-1.198c0.159-0.044,0.313-0.092,0.46-0.144l1.104,0.642c0.284,0.164,0.637,0.147,0.903-0.043l1.527-1.093
			c0.273-0.196,0.402-0.537,0.327-0.864l-0.277-1.209c0.093-0.119,0.184-0.242,0.271-0.367l1.284-0.117
			c0.296-0.027,0.555-0.209,0.68-0.479c0.289-0.618,0.507-1.267,0.649-1.934C18.378,10.724,18.274,10.417,18.044,10.218z
			 M15.682,10.383l0.887,0.763c-0.064,0.224-0.14,0.448-0.228,0.672l-1.19,0.108c-0.261,0.024-0.496,0.169-0.633,0.392
			c-0.181,0.294-0.386,0.572-0.614,0.831c-0.178,0.201-0.248,0.476-0.188,0.738l0.245,1.07l-0.638,0.457l-0.982-0.57
			c-0.225-0.129-0.498-0.147-0.738-0.049c-0.326,0.133-0.663,0.238-1.006,0.314c-0.26,0.059-0.477,0.24-0.582,0.486l-0.456,1.07
			H8.774l-0.456-1.07c-0.104-0.246-0.321-0.427-0.582-0.486c-0.344-0.076-0.681-0.181-1.006-0.314
			c-0.24-0.1-0.513-0.082-0.737,0.049L4.97,15.438c-0.208-0.133-0.411-0.278-0.607-0.434l0.255-1.115
			c0.06-0.262-0.01-0.536-0.187-0.737c-0.229-0.26-0.434-0.538-0.615-0.832c-0.138-0.223-0.373-0.368-0.633-0.392l-1.19-0.108
			c-0.088-0.225-0.164-0.449-0.228-0.672l0.887-0.764c0.184-0.158,0.289-0.389,0.289-0.631v-1.17c0-0.243-0.105-0.473-0.289-0.631
			L1.765,7.186c0.064-0.223,0.14-0.447,0.228-0.671l1.19-0.108c0.261-0.024,0.495-0.169,0.633-0.392
			C3.997,5.72,4.203,5.442,4.431,5.183c0.178-0.202,0.248-0.477,0.188-0.738L4.363,3.329c0.196-0.155,0.399-0.3,0.608-0.435
			l1.022,0.593c0.225,0.13,0.497,0.148,0.737,0.05c0.326-0.133,0.662-0.238,1.006-0.314c0.261-0.06,0.477-0.24,0.582-0.486
			l0.457-1.07H9.56l0.456,1.07c0.104,0.246,0.321,0.427,0.582,0.486c0.344,0.076,0.68,0.181,1.006,0.314
			c0.24,0.1,0.513,0.082,0.738-0.049l1.022-0.593c0.208,0.134,0.411,0.279,0.608,0.435l-0.255,1.116
			c-0.06,0.262,0.009,0.536,0.187,0.737c0.229,0.26,0.434,0.538,0.615,0.832c0.138,0.223,0.372,0.368,0.633,0.392l1.19,0.108
			c0.088,0.225,0.164,0.448,0.228,0.672L15.682,7.95c-0.184,0.158-0.289,0.389-0.289,0.631v1.17
			C15.393,9.994,15.498,10.225,15.682,10.383z"/>
	</g>
</g>
<g>
	<g>
		<path fill="#003F79" d="M9.167,5C6.866,5,5,6.866,5,9.167s1.866,4.167,4.167,4.167s4.167-1.866,4.167-4.167
			C13.331,6.867,11.467,5.003,9.167,5z M9.167,11.667c-1.381,0-2.5-1.119-2.5-2.5c0-1.38,1.119-2.5,2.5-2.5s2.5,1.12,2.5,2.5
			C11.666,10.547,10.547,11.665,9.167,11.667z"/>
	</g>
</g>
<g>
	<g>
		<path fill="#003F79" d="M9.167,41.666L9.167,41.666H2.5c-0.46,0-0.833,0.373-0.833,0.834l0,0v6.666C1.667,49.627,2.04,50,2.5,50
			l0,0h6.667C9.627,50,10,49.627,10,49.167c0,0,0,0,0-0.001V42.5C10,42.04,9.627,41.667,9.167,41.666z M8.333,48.334h-5v-5h5V48.334
			z"/>
	</g>
</g>
<g>
	<g>
		<path fill="#003F79" d="M21.667,39.166L21.667,39.166H15c-0.46,0-0.833,0.373-0.833,0.834l0,0v9.166C14.167,49.627,14.54,50,15,50
			l0,0h6.667c0.46,0,0.833-0.373,0.833-0.833c0,0,0,0,0-0.001V40C22.5,39.54,22.127,39.167,21.667,39.166z M20.833,48.334h-5v-7.5h5
			V48.334z"/>
	</g>
</g>
<g>
	<g>
		<path fill="#003F79" d="M34.168,35.834C34.167,35.834,34.167,35.834,34.168,35.834H27.5c-0.46-0.001-0.833,0.372-0.833,0.832l0,0
			v12.5c0,0.461,0.372,0.834,0.833,0.834l0,0h6.667C34.627,50,35,49.627,35,49.167c0,0,0,0,0-0.001v-12.5
			C35,36.207,34.627,35.834,34.168,35.834z M33.334,48.334h-5V37.5h5V48.334z"/>
	</g>
</g>
<g>
	<g>
		<path fill="#003F79" d="M46.668,28.334C46.667,28.334,46.667,28.334,46.668,28.334H40c-0.46-0.001-0.833,0.372-0.833,0.832l0,0v20
			C39.167,49.627,39.539,50,40,50l0,0h6.667c0.46,0,0.833-0.373,0.833-0.833c0,0,0,0,0-0.001v-20
			C47.5,28.707,47.127,28.334,46.668,28.334z M45.834,48.334h-5V30h5V48.334z"/>
	</g>
</g>
<g>
	<g>
		<path fill="#003F79" d="M28.578,18.37c-0.006-0.001-0.01-0.003-0.016-0.004l-5.833-1.667l-0.458,1.604l4.084,1.167l-25.146,16.5
			l0.915,1.394l24.733-16.231l-1.373,4.456l1.592,0.49l2.052-6.667C29.266,18.971,29.018,18.505,28.578,18.37z"/>
	</g>
</g>
<g>
	<g>
		<path fill="#003F79" d="M45.582,8.027c-0.125-0.122-0.284-0.201-0.456-0.228L41.535,7.25l-1.613-3.438
			c-0.195-0.417-0.691-0.596-1.109-0.4c-0.176,0.083-0.316,0.225-0.399,0.4L36.799,7.25l-3.591,0.549
			c-0.31,0.047-0.565,0.263-0.665,0.559s-0.023,0.623,0.193,0.847l2.623,2.688l-0.62,3.806c-0.074,0.454,0.233,0.882,0.688,0.957
			c0.185,0.03,0.373-0.002,0.537-0.093l3.202-1.77l3.202,1.77c0.401,0.223,0.909,0.077,1.132-0.326
			c0.091-0.164,0.124-0.353,0.093-0.538l-0.62-3.806l2.623-2.688C45.918,8.875,45.912,8.348,45.582,8.027z M41.486,11.03
			c-0.185,0.189-0.269,0.455-0.225,0.716l0.411,2.528l-2.104-1.163c-0.25-0.139-0.555-0.139-0.807,0l-2.104,1.163l0.412-2.528
			c0.043-0.261-0.041-0.527-0.227-0.716l-1.783-1.829l2.428-0.371c0.273-0.042,0.511-0.218,0.629-0.47l1.048-2.233l1.048,2.233
			c0.118,0.252,0.354,0.428,0.629,0.47l2.428,0.371L41.486,11.03z"/>
	</g>
</g>
<g>
	<g>
		<path fill="#003F79" d="M40.768,19.862C40.242,19.954,39.711,20,39.18,20h-0.013c-0.53,0-1.062-0.045-1.583-0.137l-0.286,1.642
			c0.624,0.089,1.253,0.144,1.882,0.161c0.629,0,1.258-0.055,1.877-0.164L40.768,19.862z"/>
	</g>
</g>
<g>
	<g>
		<path fill="#003F79" d="M41.014,0.157l-0.281,1.642c1.054,0.181,2.065,0.546,2.992,1.079l0.83-1.445
			C43.458,0.802,42.26,0.371,41.014,0.157z"/>
	</g>
</g>
<g>
	<g>
		<path fill="#003F79" d="M37.256,0.167c-1.244,0.222-2.439,0.661-3.531,1.297l0.84,1.44c0.922-0.538,1.934-0.909,2.984-1.097
			L37.256,0.167z"/>
	</g>
</g>
<g>
	<g>
		<path fill="#003F79" d="M46.191,16.722c-0.688,0.819-1.512,1.512-2.438,2.048l0.836,1.442c1.093-0.632,2.065-1.451,2.878-2.418
			L46.191,16.722z"/>
	</g>
</g>
<g>
	<g>
		<path fill="#003F79" d="M49.632,10.802l-1.298,0.031c0.001,1.069-0.186,2.13-0.551,3.135l1.566,0.57
			c0.435-1.195,0.653-2.458,0.649-3.729L49.632,10.802z"/>
	</g>
</g>
<g>
	<g>
		<path fill="#003F79" d="M47.441,3.841L46.17,4.917c0.689,0.815,1.232,1.746,1.602,2.748l1.564-0.576
			C48.898,5.904,48.258,4.804,47.441,3.841z"/>
	</g>
</g>
<g>
	<g>
		<path fill="#003F79" d="M30.852,3.888c-0.811,0.969-1.444,2.073-1.875,3.261l1.567,0.566c0.363-1.005,0.899-1.939,1.587-2.758
			L30.852,3.888z"/>
	</g>
</g>
<g>
	<g>
		<path fill="#003F79" d="M32.152,16.735l-1.273,1.074c0.813,0.966,1.787,1.783,2.881,2.414l0.834-1.444
			C33.667,18.245,32.842,17.553,32.152,16.735z"/>
	</g>
</g>
<g>
	<g>
		<path fill="#003F79" d="M30,10.852l-1.666,0.003c0,1.263,0.223,2.517,0.657,3.703l1.565-0.573
			C30.189,12.981,30.001,11.921,30,10.852z"/>
	</g>
</g>
</svg>
